{
  "accessors": [
    {
      "bufferView": 2,
      "componentType": 5126,
      "count": 5561,
      "max": [
        13.973603248596191,
        13.973392486572266,
        30.08251953125
      ],
      "min": [
        -13.973607063293457,
        -13.973396301269531,
        -5.550802144451772e-15
      ],
      "type": "VEC3"
    },
    {
      "bufferView": 2,
      "byteOffset": 66732,
      "componentType": 5126,
      "count": 5561,
      "max": [
        0.9998499155044556,
        0.9998499155044556,
        1.0
      ],
      "min": [
        -0.9998499751091003,
        -0.9998499751091003,
        -1.0
      ],
      "type": "VEC3"
    },
    {
      "bufferView": 1,
      "componentType": 5126,
      "count": 5561,
      "max": [
        1.2520582675933838,
        1.2479417324066162
      ],
      "min": [
        -0.25205832719802856,
        -0.24794167280197144
      ],
      "type": "VEC2"
    },
    {
      "bufferView": 0,
      "componentType": 5125,
      "count": 32040,
      "type": "SCALAR"
    },
    {
      "bufferView": 2,
      "byteOffset": 133464,
      "componentType": 5126,
      "count": 902,
      "max": [
        12.027817726135254,
        11.98405933380127,
        0.8905510902404785
      ],
      "min": [
        -12.05243968963623,
        -11.9774169921875,
        -0.3944442868232727
      ],
      "type": "VEC3"
    },
    {
      "bufferView": 2,
      "byteOffset": 144288,
      "componentType": 5126,
      "count": 902,
      "max": [
        0.9971654415130615,
        0.9948762655258179,
        0.9999884963035583
      ],
      "min": [
        -0.9982955455780029,
        -0.9987817406654358,
        -0.9999967217445374
      ],
      "type": "VEC3"
    },
    {
      "bufferView": 1,
      "byteOffset": 44488,
      "componentType": 5126,
      "count": 902,
      "max": [
        1.0,
        1.0
      ],
      "min": [
        2.9802322387695313e-08,
        2.9802322387695313e-08
      ],
      "type": "VEC2"
    },
    {
      "bufferView": 0,
      "byteOffset": 128160,
      "componentType": 5125,
      "count": 5040,
      "type": "SCALAR"
    },
    {
      "bufferView": 2,
      "byteOffset": 155112,
      "componentType": 5126,
      "count": 3731,
      "max": [
        0.5129180550575256,
        20.203887939453125,
        0.38564014434814453
      ],
      "min": [
        -0.343710720539093,
        -0.006781050935387611,
        -0.3170958161354065
      ],
      "type": "VEC3"
    },
    {
      "bufferView": 2,
      "byteOffset": 199884,
      "componentType": 5126,
      "count": 3731,
      "max": [
        0.9999871253967285,
        0.18878450989723206,
        0.9999945163726807
      ],
      "min": [
        -0.9999911189079285,
        -0.11367879062891006,
        -0.9999797940254211
      ],
      "type": "VEC3"
    },
    {
      "bufferView": 1,
      "byteOffset": 51704,
      "componentType": 5126,
      "count": 3731,
      "max": [
        0.40824198722839355,
        16.19002342224121
      ],
      "min": [
        -0.5917580127716064,
        0.08230000734329224
      ],
      "type": "VEC2"
    },
    {
      "bufferView": 1,
      "byteOffset": 81552,
      "componentType": 5126,
      "count": 3731,
      "max": [
        1.0,
        1.0
      ],
      "min": [
        1.0,
        1.0
      ],
      "type": "VEC2"
    },
    {
      "bufferView": 0,
      "byteOffset": 148320,
      "componentType": 5125,
      "count": 21600,
      "type": "SCALAR"
    },
    {
      "bufferView": 2,
      "byteOffset": 244656,
      "componentType": 5126,
      "count": 41237,
      "max": [
        5.744466304779053,
        22.401926040649414,
        5.511497974395752
      ],
      "min": [
        -5.39390230178833,
        3.2036170959472656,
        -6.268956184387207
      ],
      "type": "VEC3"
    },
    {
      "bufferView": 2,
      "byteOffset": 739500,
      "componentType": 5126,
      "count": 41237,
      "max": [
        1.0,
        0.999991238117218,
        0.9999935030937195
      ],
      "min": [
        -0.9997177124023438,
        -0.9978723526000977,
        -0.9997508525848389
      ],
      "type": "VEC3"
    },
    {
      "bufferView": 1,
      "byteOffset": 111400,
      "componentType": 5126,
      "count": 41237,
      "max": [
        1.0,
        16.31123924255371
      ],
      "min": [
        -0.5917580127716064,
        0.0
      ],
      "type": "VEC2"
    },
    {
      "bufferView": 1,
      "byteOffset": 441296,
      "componentType": 5126,
      "count": 41237,
      "max": [
        1.0,
        1.0
      ],
      "min": [
        0.9999997019767761,
        0.9999997019767761
      ],
      "type": "VEC2"
    },
    {
      "bufferView": 0,
      "byteOffset": 234720,
      "componentType": 5125,
      "count": 221052,
      "type": "SCALAR"
    }
  ],
  "asset": {
    "extras": {
      "author": "Martin.Laberge (https://sketchfab.com/Martin.Laberge)",
      "license": "CC-BY-4.0 (http://creativecommons.org/licenses/by/4.0/)",
      "source": "https://sketchfab.com/3d-models/plant-527624eb804b4a54aac80f462b7779c3",
      "title": "Plant"
    },
    "generator": "Sketchfab-12.67.0",
    "version": "2.0"
  },
  "bufferViews": [
    {
      "buffer": 0,
      "byteLength": 1118928,
      "name": "floatBufferViews",
      "target": 34963
    },
    {
      "buffer": 0,
      "byteLength": 771192,
      "byteOffset": 1118928,
      "byteStride": 8,
      "name": "floatBufferViews",
      "target": 34962
    },
    {
      "buffer": 0,
      "byteLength": 1234344,
      "byteOffset": 1890120,
      "byteStride": 12,
      "name": "floatBufferViews",
      "target": 34962
    }
  ],
  "buffers": [
    {
      "byteLength": 3124464,
      "uri": "scene.bin"
    }
  ],
  "images": [
    {
      "uri": "textures/Material_3_baseColor.jpeg"
    },
    {
      "uri": "textures/stone_baseColor.jpeg"
    },
    {
      "uri": "textures/leaf_baseColor.jpeg"
    }
  ],
  "materials": [
    {
      "doubleSided": true,
      "name": "Material_3",
      "pbrMetallicRoughness": {
        "baseColorTexture": {
          "index": 0
        },
        "metallicFactor": 0.0,
        "roughnessFactor": 0.6
      }
    },
    {
      "doubleSided": true,
      "name": "stone",
      "pbrMetallicRoughness": {
        "baseColorTexture": {
          "index": 1
        },
        "metallicFactor": 0.0,
        "roughnessFactor": 0.6
      }
    },
    {
      "doubleSided": true,
      "name": "Material_2",
      "pbrMetallicRoughness": {
        "baseColorFactor": [
          0.0925066476767465,
          0.07101235590925185,
          0.05576422486623863,
          1.0
        ],
        "metallicFactor": 0.0,
        "roughnessFactor": 0.6
      }
    },
    {
      "doubleSided": true,
      "name": "leaf",
      "pbrMetallicRoughness": {
        "baseColorTexture": {
          "index": 2
        },
        "metallicFactor": 0.0,
        "roughnessFactor": 0.6
      }
    }
  ],
  "meshes": [
    {
      "name": "Cylinder001_Material #3_0",
      "primitives": [
        {
          "attributes": {
            "NORMAL": 1,
            "POSITION": 0,
            "TEXCOORD_0": 2
          },
          "indices": 3,
          "material": 0,
          "mode": 4
        }
      ]
    },
    {
      "name": "Cylinder002_stone_0",
      "primitives": [
        {
          "attributes": {
            "NORMAL": 5,
            "POSITION": 4,
            "TEXCOORD_0": 6
          },
          "indices": 7,
          "material": 1,
          "mode": 4
        }
      ]
    },
    {
      "name": "plant_Material #2_0",
      "primitives": [
        {
          "attributes": {
            "NORMAL": 9,
            "POSITION": 8,
            "TEXCOORD_0": 10,
            "TEXCOORD_1": 11
          },
          "indices": 12,
          "material": 2,
          "mode": 4
        }
      ]
    },
    {
      "name": "plant_leaf_0",
      "primitives": [
        {
          "attributes": {
            "NORMAL": 14,
            "POSITION": 13,
            "TEXCOORD_0": 15,
            "TEXCOORD_1": 16
          },
          "indices": 17,
          "material": 3,
          "mode": 4
        }
      ]
    }
  ],
  "nodes": [
    {
      "children": [
        1
      ],
      "matrix": [
        1.0,
        0.0,
        0.0,
        0.0,
        0.0,
        2.220446049250313e-16,
        -1.0,
        0.0,
        0.0,
        1.0,
        2.220446049250313e-16,
        0.0,
        0.0,
        0.0,
        0.0,
        1.0
      ],
      "name": "Sketchfab_model"
    },
    {
      "children": [
        2
      ],
      "matrix": [
        1.0,
        0.0,
        0.0,
        0.0,
        0.0,
        0.0,
        1.0,
        0.0,
        0.0,
        -1.0,
        0.0,
        0.0,
        0.0,
        0.0,
        0.0,
        1.0
      ],
      "name": "5ec3bf8d909247eebedfdeaf9c42733a.fbx"
    },
    {
      "children": [
        3
      ],
      "name": "RootNode"
    },
    {
      "children": [
        4,
        6,
        8
      ],
      "matrix": [
        1.0,
        0.0,
        0.0,
        0.0,
        0.0,
        2.220446049250313e-16,
        -1.0,
        0.0,
        0.0,
        1.0,
        2.220446049250313e-16,
        0.0,
        9.51947021484375,
        633.5703735351563,
        -13.661941528320313,
        1.0
      ],
      "name": "Group001"
    },
    {
      "children": [
        5
      ],
      "matrix": [
        6.775439739227295,
        0.0,
        0.0,
        0.0,
        0.0,
        6.775439739227295,
        0.0,
        0.0,
        0.0,
        0.0,
        6.775439739227295,
        0.0,
        -11.50026798248291,
        -16.808212280273438,
        -633.4447631835938,
        1.0
      ],
      "name": "Cylinder001"
    },
    {
      "mesh": 0,
      "name": "Cylinder001_Material #3_0"
    },
    {
      "children": [
        7
      ],
      "matrix": [
        5.950994491577148,
        0.0,
        0.0,
        0.0,
        0.0,
        5.950994491577148,
        0.0,
        0.0,
        0.0,
        0.0,
        5.950994491577148,
        0.0,
        -11.166651725769043,
        -16.55785369873047,
        -439.50555419921875,
        1.0
      ],
      "name": "Cylinder002"
    },
    {
      "mesh": 1,
      "name": "Cylinder002_stone_0"
    },
    {
      "children": [
        9,
        10
      ],
      "matrix": [
        55.346923828125,
        0.0,
        0.0,
        0.0,
        0.0,
        -9.0171588378791e-06,
        55.34692382812427,
        0.0,
        0.0,
        -55.34692382812427,
        -9.0171588378791e-06,
        0.0,
        -9.701314926147461,
        -20.961366653442383,
        -606.432861328125,
        1.0
      ],
      "name": "plant"
    },
    {
      "mesh": 2,
      "name": "plant_Material #2_0"
    },
    {
      "mesh": 3,
      "name": "plant_leaf_0"
    }
  ],
  "samplers": [
    {
      "magFilter": 9729,
      "minFilter": 9987,
      "wrapS": 10497,
      "wrapT": 10497
    }
  ],
  "scene": 0,
  "scenes": [
    {
      "name": "Sketchfab_Scene",
      "nodes": [
        0
      ]
    }
  ],
  "textures": [
    {
      "sampler": 0,
      "source": 0
    },
    {
      "sampler": 0,
      "source": 1
    },
    {
      "sampler": 0,
      "source": 2
    }
  ]
}
