{
  "accessors": [
    {
      "bufferView": 2,
      "componentType": 5126,
      "count": 9951,
      "max": [
        106.5545654296875,
        43.98629379272461,
        134.3619384765625
      ],
      "min": [
        -115.9265365600586,
        -40.522918701171875,
        -0.20031200349330902
      ],
      "type": "VEC3"
    },
    {
      "bufferView": 2,
      "byteOffset": 119412,
      "componentType": 5126,
      "count": 9951,
      "max": [
        0.99981689453125,
        0.9999948740005493,
        0.9999256134033203
      ],
      "min": [
        -0.9998170137405396,
        -0.999999463558197,
        -0.9999902248382568
      ],
      "type": "VEC3"
    },
    {
      "bufferView": 1,
      "componentType": 5126,
      "count": 9951,
      "max": [
        0.9976509809494019,
        0.997285008430481
      ],
      "min": [
        0.0026579999830573797,
        0.002589999930933118
      ],
      "type": "VEC2"
    },
    {
      "bufferView": 0,
      "componentType": 5125,
      "count": 50196,
      "type": "SCALAR"
    },
    {
      "bufferView": 2,
      "byteOffset": 238824,
      "componentType": 5126,
      "count": 9978,
      "max": [
        146.2544403076172,
        126.70417785644531,
        146.062255859375
      ],
      "min": [
        -146.2544403076172,
        -28.182861328125,
        21.478912353515625
      ],
      "type": "VEC3"
    },
    {
      "bufferView": 2,
      "byteOffset": 358560,
      "componentType": 5126,
      "count": 9978,
      "max": [
        1.0,
        0.9999060034751892,
        1.0
      ],
      "min": [
        -1.0,
        -1.0,
        -1.0
      ],
      "type": "VEC3"
    },
    {
      "bufferView": 1,
      "byteOffset": 79608,
      "componentType": 5126,
      "count": 9978,
      "max": [
        0.9986010193824768,
        0.9978280067443848
      ],
      "min": [
        0.0027970001101493835,
        0.002589999930933118
      ],
      "type": "VEC2"
    },
    {
      "bufferView": 0,
      "byteOffset": 200784,
      "componentType": 5125,
      "count": 54480,
      "type": "SCALAR"
    },
    {
      "bufferView": 2,
      "byteOffset": 478296,
      "componentType": 5126,
      "count": 2238,
      "max": [
        96.8078842163086,
        123.69464111328125,
        122.83250427246094
      ],
      "min": [
        -26.13273048400879,
        -26.94008445739746,
        22.948148727416992
      ],
      "type": "VEC3"
    },
    {
      "bufferView": 2,
      "byteOffset": 505152,
      "componentType": 5126,
      "count": 2238,
      "max": [
        1.0,
        0.9993861317634583,
        1.0
      ],
      "min": [
        -1.0,
        -1.0,
        -1.0
      ],
      "type": "VEC3"
    },
    {
      "bufferView": 1,
      "byteOffset": 159432,
      "componentType": 5126,
      "count": 2238,
      "max": [
        0.9976509809494019,
        0.9975020289421082
      ],
      "min": [
        0.0032220000866800547,
        0.0024560000747442245
      ],
      "type": "VEC2"
    },
    {
      "bufferView": 0,
      "byteOffset": 418704,
      "componentType": 5125,
      "count": 12384,
      "type": "SCALAR"
    }
  ],
  "asset": {
    "extras": {
      "author": "zhao517578549 (https://sketchfab.com/zhao517578549)",
      "license": "CC-BY-4.0 (http://creativecommons.org/licenses/by/4.0/)",
      "source": "https://sketchfab.com/3d-models/bird-7a51fc9ea78d499e980a929ca25a6dba",
      "title": "bird"
    },
    "generator": "Sketchfab-12.67.0",
    "version": "2.0"
  },
  "bufferViews": [
    {
      "buffer": 0,
      "byteLength": 468240,
      "name": "floatBufferViews",
      "target": 34963
    },
    {
      "buffer": 0,
      "byteLength": 177336,
      "byteOffset": 468240,
      "byteStride": 8,
      "name": "floatBufferViews",
      "target": 34962
    },
    {
      "buffer": 0,
      "byteLength": 532008,
      "byteOffset": 645576,
      "byteStride": 12,
      "name": "floatBufferViews",
      "target": 34962
    }
  ],
  "buffers": [
    {
      "byteLength": 1177584,
      "uri": "scene.bin"
    }
  ],
  "images": [
    {
      "uri": "textures/lambert7SG_baseColor.png"
    }
  ],
  "materials": [
    {
      "doubleSided": true,
      "name": "lambert7SG",
      "pbrMetallicRoughness": {
        "baseColorTexture": {
          "index": 0
        },
        "metallicFactor": 0.0,
        "roughnessFactor": 0.6
      }
    }
  ],
  "meshes": [
    {
      "name": "Object_0",
      "primitives": [
        {
          "attributes": {
            "NORMAL": 1,
            "POSITION": 0,
            "TEXCOORD_0": 2
          },
          "indices": 3,
          "material": 0,
          "mode": 4
        }
      ]
    },
    {
      "name": "Object_1",
      "primitives": [
        {
          "attributes": {
            "NORMAL": 5,
            "POSITION": 4,
            "TEXCOORD_0": 6
          },
          "indices": 7,
          "material": 0,
          "mode": 4
        }
      ]
    },
    {
      "name": "Object_2",
      "primitives": [
        {
          "attributes": {
            "NORMAL": 9,
            "POSITION": 8,
            "TEXCOORD_0": 10
          },
          "indices": 11,
          "material": 0,
          "mode": 4
        }
      ]
    }
  ],
  "nodes": [
    {
      "children": [
        1
      ],
      "matrix": [
        1.0,
        0.0,
        0.0,
        0.0,
        0.0,
        2.220446049250313e-16,
        -1.0,
        0.0,
        0.0,
        1.0,
        2.220446049250313e-16,
        0.0,
        0.0,
        0.0,
        0.0,
        1.0
      ],
      "name": "Sketchfab_model"
    },
    {
      "children": [
        2,
        3,
        4
      ],
      "name": "YinWu.OBJ.cleaner.materialmerger.gles"
    },
    {
      "mesh": 0,
      "name": "Object_2"
    },
    {
      "mesh": 1,
      "name": "Object_3"
    },
    {
      "mesh": 2,
      "name": "Object_4"
    }
  ],
  "samplers": [
    {
      "magFilter": 9729,
      "minFilter": 9987,
      "wrapS": 10497,
      "wrapT": 10497
    }
  ],
  "scene": 0,
  "scenes": [
    {
      "name": "Sketchfab_Scene",
      "nodes": [
        0
      ]
    }
  ],
  "textures": [
    {
      "sampler": 0,
      "source": 0
    }
  ]
}
