{
  "accessors": [
    {
      "bufferView": 2,
      "componentType": 5126,
      "count": 16296,
      "max": [
        431.2819519042969,
        431.28192138671875,
        53.00193786621094
      ],
      "min": [
        -431.2819519042969,
        -431.2818603515625,
        0.0
      ],
      "type": "VEC3"
    },
    {
      "bufferView": 2,
      "byteOffset": 195552,
      "componentType": 5126,
      "count": 16296,
      "max": [
        1.0,
        1.0,
        1.0
      ],
      "min": [
        -1.0,
        -1.0,
        -1.0
      ],
      "type": "VEC3"
    },
    {
      "bufferView": 1,
      "componentType": 5126,
      "count": 16296,
      "max": [
        0.9129502773284912,
        0.9129502773284912
      ],
      "min": [
        0.08538132905960083,
        0.08693406730890274
      ],
      "type": "VEC2"
    },
    {
      "bufferView": 0,
      "componentType": 5125,
      "count": 93312,
      "type": "SCALAR"
    },
    {
      "bufferView": 2,
      "byteOffset": 391104,
      "componentType": 5126,
      "count": 38504,
      "max": [
        407.792236328125,
        882.65869140625,
        460.0256042480469
      ],
      "min": [
        -484.2002868652344,
        -9.310626029968262,
        149.30633544921875
      ],
      "type": "VEC3"
    },
    {
      "bufferView": 2,
      "byteOffset": 853152,
      "componentType": 5126,
      "count": 38504,
      "max": [
        1.0,
        1.0,
        1.0
      ],
      "min": [
        -1.0,
        -1.0,
        -1.0
      ],
      "type": "VEC3"
    },
    {
      "bufferView": 1,
      "byteOffset": 130368,
      "componentType": 5126,
      "count": 38504,
      "max": [
        1.9850802421569824,
        1.985146403312683
      ],
      "min": [
        -0.9850802421569824,
        -0.9851465225219727
      ],
      "type": "VEC2"
    },
    {
      "bufferView": 0,
      "byteOffset": 373248,
      "componentType": 5125,
      "count": 211848,
      "type": "SCALAR"
    },
    {
      "bufferView": 2,
      "byteOffset": 1315200,
      "componentType": 5126,
      "count": 30188,
      "max": [
        438.6922302246094,
        884.4694213867188,
        288.0122985839844
      ],
      "min": [
        -452.8333740234375,
        -7.056280136108398,
        0.0
      ],
      "type": "VEC3"
    },
    {
      "bufferView": 2,
      "byteOffset": 1677456,
      "componentType": 5126,
      "count": 30188,
      "max": [
        0.9999994039535522,
        0.999999463558197,
        1.0
      ],
      "min": [
        -0.9999994039535522,
        -0.999999463558197,
        -1.0
      ],
      "type": "VEC3"
    },
    {
      "bufferView": 1,
      "byteOffset": 438400,
      "componentType": 5126,
      "count": 30188,
      "max": [
        0.9722222089767456,
        1.0
      ],
      "min": [
        -0.027777791023254395,
        0.0
      ],
      "type": "VEC2"
    },
    {
      "bufferView": 0,
      "byteOffset": 1220640,
      "componentType": 5125,
      "count": 160968,
      "type": "SCALAR"
    }
  ],
  "asset": {
    "extras": {
      "author": "Zuo Modern (https://sketchfab.com/zuo)",
      "license": "CC-BY-NC-ND-4.0 (http://creativecommons.org/licenses/by-nc-nd/4.0/)",
      "source": "https://sketchfab.com/3d-models/jahre-coffee-table-109385-e6238530205f4b39bd62a49ad653b2c8",
      "title": "Jahre Coffee Table - 109385"
    },
    "generator": "Sketchfab-12.68.0",
    "version": "2.0"
  },
  "bufferViews": [
    {
      "buffer": 0,
      "byteLength": 1864512,
      "name": "floatBufferViews",
      "target": 34963
    },
    {
      "buffer": 0,
      "byteLength": 679904,
      "byteOffset": 1864512,
      "byteStride": 8,
      "name": "floatBufferViews",
      "target": 34962
    },
    {
      "buffer": 0,
      "byteLength": 2039712,
      "byteOffset": 2544416,
      "byteStride": 12,
      "name": "floatBufferViews",
      "target": 34962
    }
  ],
  "buffers": [
    {
      "byteLength": 4584128,
      "uri": "scene.bin"
    }
  ],
  "images": [
    {
      "uri": "textures/vray_022_baseColor.jpeg"
    },
    {
      "uri": "textures/vray_03_-_Defaultu_metallicRoughness.png"
    }
  ],
  "materials": [
    {
      "doubleSided": true,
      "name": "vray_022",
      "pbrMetallicRoughness": {
        "baseColorTexture": {
          "index": 0
        },
        "metallicFactor": 0.9187670943058942,
        "roughnessFactor": 0.6
      }
    },
    {
      "doubleSided": true,
      "name": "vray_03_-_Defaultu",
      "pbrMetallicRoughness": {
        "baseColorFactor": [
          0.6938717612919899,
          0.5271151257058131,
          0.27467731206038465,
          1.0
        ],
        "metallicRoughnessTexture": {
          "index": 1
        },
        "roughnessFactor": 0.12111357740757307
      }
    },
    {
      "doubleSided": true,
      "name": "vray_03_-_Defaultt",
      "pbrMetallicRoughness": {
        "baseColorFactor": [
          0.04825934533322086,
          0.04825934533322086,
          0.04825934533322086,
          1.0
        ],
        "metallicFactor": 0.0,
        "roughnessFactor": 0.6
      }
    }
  ],
  "meshes": [
    {
      "name": "Cylinder046_vray_022_0",
      "primitives": [
        {
          "attributes": {
            "NORMAL": 1,
            "POSITION": 0,
            "TEXCOORD_0": 2
          },
          "indices": 3,
          "material": 0,
          "mode": 4
        }
      ]
    },
    {
      "name": "Box037_vray_03 - Defaultu_0",
      "primitives": [
        {
          "attributes": {
            "NORMAL": 5,
            "POSITION": 4,
            "TEXCOORD_0": 6
          },
          "indices": 7,
          "material": 1,
          "mode": 4
        }
      ]
    },
    {
      "name": "Cylinder053_vray_03 - Defaultt_0",
      "primitives": [
        {
          "attributes": {
            "NORMAL": 9,
            "POSITION": 8,
            "TEXCOORD_0": 10
          },
          "indices": 11,
          "material": 2,
          "mode": 4
        }
      ]
    }
  ],
  "nodes": [
    {
      "children": [
        1
      ],
      "matrix": [
        1.0,
        0.0,
        0.0,
        0.0,
        0.0,
        2.220446049250313e-16,
        -1.0,
        0.0,
        0.0,
        1.0,
        2.220446049250313e-16,
        0.0,
        0.0,
        0.0,
        0.0,
        1.0
      ],
      "name": "Sketchfab_model"
    },
    {
      "children": [
        2
      ],
      "matrix": [
        0.0010000000474974513,
        0.0,
        0.0,
        0.0,
        0.0,
        0.0,
        0.0010000000474974513,
        0.0,
        0.0,
        -0.0010000000474974513,
        0.0,
        0.0,
        0.0,
        0.0,
        0.0,
        1.0
      ],
      "name": "9e595df2954f4626b01a0fb3f8b875fb.fbx"
    },
    {
      "children": [
        3
      ],
      "name": "RootNode"
    },
    {
      "children": [
        4,
        7,
        10
      ],
      "matrix": [
        1.0,
        0.0,
        0.0,
        0.0,
        0.0,
        2.220446049250313e-16,
        -1.0,
        0.0,
        0.0,
        1.0,
        2.220446049250313e-16,
        0.0,
        -4.57763671875e-05,
        176.87091064453125,
        -90.17404174804688,
        1.0
      ],
      "name": "109385"
    },
    {
      "children": [
        5
      ],
      "matrix": [
        1.0,
        0.0,
        0.0,
        0.0,
        0.0,
        1.0,
        0.0,
        0.0,
        0.0,
        0.0,
        1.0,
        0.0,
        -7.834227290004492e-06,
        -1.4210854715202004e-14,
        150.36996459960938,
        1.0
      ],
      "name": "Cylinder046"
    },
    {
      "children": [
        6
      ],
      "matrix": [
        1.0,
        0.0,
        -0.0,
        0.0,
        0.0,
        1.0,
        0.0,
        0.0,
        0.0,
        0.0,
        1.0,
        0.0,
        0.0,
        -3.0517578125e-05,
        -26.5009765625,
        1.0
      ],
      "name": "Object_5"
    },
    {
      "mesh": 0,
      "name": "Cylinder046_vray_022_0"
    },
    {
      "children": [
        8
      ],
      "matrix": [
        1.0,
        0.0,
        0.0,
        0.0,
        0.0,
        1.0,
        0.0,
        0.0,
        0.0,
        0.0,
        1.0,
        0.0,
        7.62939453125e-06,
        3.0517578125e-05,
        -16.49066162109375,
        1.0
      ],
      "name": "Box037"
    },
    {
      "children": [
        9
      ],
      "matrix": [
        1.0,
        0.0,
        -0.0,
        0.0,
        0.0,
        1.0,
        0.0,
        0.0,
        0.0,
        0.0,
        1.0,
        0.0,
        38.20402526855469,
        -436.6740417480469,
        -304.66595458984375,
        1.0
      ],
      "name": "Object_8"
    },
    {
      "mesh": 1,
      "name": "Box037_vray_03 - Defaultu_0"
    },
    {
      "children": [
        11
      ],
      "matrix": [
        0.9999999999999847,
        -1.7484555314694907e-07,
        -1.4693679385278597e-39,
        0.0,
        1.7484555314694907e-07,
        0.9999999999999847,
        -3.8893845486632136e-62,
        0.0,
        1.4693679385278372e-39,
        -2.5691244998829583e-46,
        1.0,
        0.0,
        7.677078247070313e-05,
        0.0,
        -32.864776611328125,
        1.0
      ],
      "name": "Cylinder053"
    },
    {
      "children": [
        12
      ],
      "matrix": [
        1.0,
        0.0,
        -0.0,
        0.0,
        0.0,
        1.0,
        0.0,
        0.0,
        0.0,
        0.0,
        1.0,
        0.0,
        7.0705718994140625,
        -438.7065734863281,
        -144.0061492919922,
        1.0
      ],
      "name": "Object_11"
    },
    {
      "mesh": 2,
      "name": "Cylinder053_vray_03 - Defaultt_0"
    }
  ],
  "samplers": [
    {
      "magFilter": 9729,
      "minFilter": 9987,
      "wrapS": 10497,
      "wrapT": 10497
    }
  ],
  "scene": 0,
  "scenes": [
    {
      "name": "Sketchfab_Scene",
      "nodes": [
        0
      ]
    }
  ],
  "textures": [
    {
      "sampler": 0,
      "source": 0
    },
    {
      "sampler": 0,
      "source": 1
    }
  ]
}
